<svg width="24" height="24" viewBox="0 0 24 24" fill="none" xmlns="http://www.w3.org/2000/svg">
<path d="M16.56 3H6.47998C6.09807 3 5.7318 3.15804 5.46174 3.43934C5.19169 3.72064 5.03998 4.10218 5.03998 4.5V21C5.04004 21.1338 5.07449 21.2652 5.13975 21.3805C5.20501 21.4958 5.2987 21.5908 5.4111 21.6557C5.5235 21.7206 5.65052 21.7529 5.77897 21.7494C5.90742 21.7458 6.03262 21.7066 6.14158 21.6356L11.52 18.1341L16.8993 21.6356C17.0082 21.7063 17.1333 21.7454 17.2616 21.7488C17.39 21.7522 17.5168 21.7198 17.6291 21.655C17.7413 21.5902 17.8349 21.4953 17.9001 21.3801C17.9653 21.2649 17.9998 21.1337 18 21V4.5C18 4.10218 17.8483 3.72064 17.5782 3.43934C17.3082 3.15804 16.9419 3 16.56 3ZM16.56 19.6472L11.9007 16.6144C11.7862 16.5399 11.654 16.5004 11.5191 16.5004C11.3841 16.5004 11.2519 16.5399 11.1375 16.6144L6.47998 19.6472V4.5H16.56V19.6472Z" fill="#3C6FE2"/>
</svg>
