<svg width="21" height="20" viewBox="0 0 21 20" fill="none" xmlns="http://www.w3.org/2000/svg">
<g clip-path="url(#clip0_1_415)">
<path d="M5.12234 15.8333C4.03892 15.7267 3.22729 15.4013 2.68297 14.857C1.70667 13.8807 1.70667 12.3093 1.70667 9.16665V8.74998C1.70667 5.60728 1.70667 4.03594 2.68297 3.05962C3.65929 2.08331 5.23063 2.08331 8.37333 2.08331H11.7067C14.8493 2.08331 16.4207 2.08331 17.397 3.05962C18.3733 4.03594 18.3733 5.60728 18.3733 8.74998V9.16665C18.3733 12.3093 18.3733 13.8807 17.397 14.857C16.4207 15.8333 14.8493 15.8333 11.7067 15.8333C11.2396 15.8437 10.8676 15.8792 10.5022 15.9625C9.5035 16.1924 8.57875 16.7034 7.66489 17.1491C6.36274 17.784 5.71166 18.1015 5.30307 17.8042C4.52141 17.2221 5.28545 15.4182 5.45666 14.5833" stroke="#3C6FE2" stroke-width="1.5" stroke-linecap="round"/>
</g>
<defs>
<clipPath id="clip0_1_415">
<rect width="20" height="20" fill="white" transform="translate(0.039978)"/>
</clipPath>
</defs>
</svg>
