<svg width="21" height="20" viewBox="0 0 21 20" fill="none" xmlns="http://www.w3.org/2000/svg">
<path d="M13.9462 2.5C12.3329 2.5 10.9204 3.19375 10.04 4.36641C9.15951 3.19375 7.74701 2.5 6.13373 2.5C4.84953 2.50145 3.61834 3.01223 2.71028 3.9203C1.80221 4.82837 1.29143 6.05955 1.28998 7.34375C1.28998 12.8125 9.39857 17.2391 9.74388 17.4219C9.8349 17.4708 9.93663 17.4965 10.04 17.4965C10.1433 17.4965 10.2451 17.4708 10.3361 17.4219C10.6814 17.2391 18.79 12.8125 18.79 7.34375C18.7885 6.05955 18.2777 4.82837 17.3697 3.9203C16.4616 3.01223 15.2304 2.50145 13.9462 2.5ZM10.04 16.1563C8.61342 15.325 2.53998 11.5383 2.53998 7.34375C2.54122 6.39101 2.92024 5.47765 3.59393 4.80396C4.26762 4.13026 5.18099 3.75124 6.13373 3.75C7.65326 3.75 8.92904 4.55938 9.46185 5.85938C9.50894 5.97401 9.58904 6.07205 9.69198 6.14105C9.79492 6.21005 9.91605 6.2469 10.04 6.2469C10.1639 6.2469 10.285 6.21005 10.388 6.14105C10.4909 6.07205 10.571 5.97401 10.6181 5.85938C11.1509 4.55703 12.4267 3.75 13.9462 3.75C14.899 3.75124 15.8123 4.13026 16.486 4.80396C17.1597 5.47765 17.5387 6.39101 17.54 7.34375C17.54 11.532 11.465 15.3242 10.04 16.1563Z" fill="#3C6FE2"/>
</svg>
